# xmcd
#
# Track frame offsets:
#	150
#	16758
#	29993
#	43895
#	57013
#	69145
#	82983
#	96782
#	114331
#	126969
#	141027
#	155179
#	168326
#	182199
#
# Disc length: 2582 seconds
#
# Revision: 1
# Processed by: cddbd v1.5.1PL0 Copyright (c) Steve Scherf et al.
# Submitted via: audiograbber 1.83.01
#
DISCID=ba0a140e
DTITLE=Diverse - Goldene Volksmusikparade 2003_7
DYEAR=2003
DGENRE=Volksmusik
TTITLE0=Monika Martin - Hast du heute schon gelächelt
TTITLE1=Zellberg Buam - A Rucksack voller Schneid
TTITLE2=Marc Pircher - Du bist kein Spiel
TTITLE3=Judith and Mel - Mitten in's Herz
TTITLE4=Captain Cook und seine singenden Saxophone - Ich denk' so gerne an Bill
TTITLE4=y Vaughn
TTITLE5=Maxi Arland - Ich hör Chopin
TTITLE6=Romana - Die Sonne scheint wenn der Herrgott lacht
TTITLE7=Andreas Winkler and Petra Frey - Canzone d'Amore
TTITLE8=Die Edlseer - DJ leg an Landler auf
TTITLE9=Sheila - Spiel ganz leise die Balalaika
TTITLE10=Florian Silbereisen - Keine Party ohne uns
TTITLE11=Die Zillertaler - So a super Tag
TTITLE12=Diana - Ola la
TTITLE13=Wolfgang Edenharder - Wenn ich deine Augen seh'
EXTD=
EXTT0=
EXTT1=
EXTT2=
EXTT3=
EXTT4=
EXTT5=
EXTT6=
EXTT7=
EXTT8=
EXTT9=
EXTT10=
EXTT11=
EXTT12=
EXTT13=
PLAYORDER=
